<svg width="193" height="69" viewBox="0 0 193 69" fill="none" xmlns="http://www.w3.org/2000/svg">
<rect y="37.355" width="193" height="31.129" fill="#393849"/>
<path d="M18.2023 45.1518V47.4785H26.6552V45.1518H18.2023ZM17.4979 51.6622V62.5912H19.91V51.6622H17.4979ZM18.0529 42.5476C17.4766 45.1304 16.3239 47.5638 14.7016 49.0794C15.2993 49.4209 16.3452 50.2321 16.7935 50.6803C18.4798 48.9086 19.8459 46.091 20.593 43.0386L18.0529 42.5476ZM22.6636 50.4455L20.465 50.7443C21.1907 56.0167 22.4714 60.2645 25.5879 62.5485C25.9508 61.8868 26.7406 60.8835 27.3169 60.4139C24.542 58.6209 23.2612 54.7787 22.6636 50.4455ZM25.4385 51.4488C24.5633 52.516 23.0051 53.9248 21.9165 54.736L23.4106 56.1875C24.542 55.419 26.0575 54.181 27.2315 53.0497L25.4385 51.4488ZM7.20932 45.8135V48.1829H16.0678V45.8135H7.20932ZM10.5179 50.2747V52.6014H13.9972V50.2747H10.5179ZM10.4325 42.569V46.582H12.8873V42.569H10.4325ZM13.1648 50.2747V50.7443C13.0794 57.3188 12.9726 59.5387 12.6738 60.051C12.503 60.2858 12.3323 60.3712 12.0548 60.3712C11.7132 60.3712 11.1583 60.3499 10.4965 60.2645C10.8381 60.9049 11.0729 61.8654 11.1156 62.5485C11.9694 62.5698 12.8019 62.5698 13.3355 62.4631C13.9118 62.3564 14.3174 62.1643 14.723 61.5666C15.2566 60.7768 15.3634 58.2153 15.4701 51.278C15.4701 50.9791 15.4701 50.2747 15.4701 50.2747H13.1648ZM9.38658 47.329V51.5128C9.38658 54.3731 9.08774 58.0019 6.71837 61.1183C7.35874 61.5239 8.19122 62.1643 8.61813 62.6765C11.265 59.2186 11.6279 55.0348 11.6279 51.5341V47.329H9.38658ZM24.2858 47.6919C22.4074 49.1861 18.5652 50.7443 15.5341 51.3634C16.0891 51.9184 16.7081 52.8362 17.0497 53.4979C20.0594 52.5801 23.987 50.787 26.1429 49.0367L24.2858 47.6919ZM38.3699 43.7857V46.2191H48.8079V43.7857H38.3699ZM43.7917 50.4242V59.5814C43.7917 59.9016 43.6636 59.987 43.258 60.0083C42.8738 60.0083 41.465 60.0083 40.2483 59.9443C40.5898 60.6914 40.9314 61.8014 41.0167 62.5485C42.9379 62.5485 44.2826 62.5271 45.2005 62.1429C46.1397 61.7373 46.4172 61.0116 46.4172 59.6455V50.4242H43.7917ZM37.452 49.6984V52.1318H49.3629V49.6984H37.452ZM32.6706 52.2172V62.6339H35.2321V50.104L34.9119 49.9759L32.6706 52.2172ZM35.0827 47.2223C33.6739 49.6344 31.3472 52.1105 29.1699 53.6474C29.6822 54.1596 30.5574 55.3123 30.9203 55.8459C33.2042 53.9675 35.8298 50.9791 37.5161 48.1402L35.0827 47.2223ZM34.2715 42.569C33.2256 44.0632 31.1764 45.9843 29.4047 47.1369C29.8316 47.6492 30.4934 48.6525 30.8349 49.2288C32.8627 47.82 35.168 45.6001 36.7263 43.5722L34.2715 42.569ZM61.7393 43.5722L58.9217 43.3374C58.8576 44.426 58.5802 45.7281 58.1532 46.8808C57.2567 49.2288 55.6131 51.5341 52.8809 54.0529L55.1649 55.7606C55.8906 54.8214 56.4883 54.0529 57.1287 53.4125C57.9398 52.6441 59.2846 51.9397 60.4586 51.9397C61.3551 51.9397 62.2089 52.388 62.2089 53.7541C62.2303 54.9067 62.1876 56.7211 62.1022 57.7244H64.6637C64.6423 56.3796 64.5783 54.0529 64.5783 52.9003C64.5783 50.9151 63.2335 49.8692 61.4618 49.8692C60.7361 49.8692 59.6047 50.0186 59.0284 50.2747C59.6261 49.4209 60.2451 48.2042 60.6934 47.1583C61.291 45.6214 61.5685 44.362 61.7393 43.5722ZM53.692 45.5574V48.0335C54.866 48.1402 56.4242 48.1829 57.2994 48.1829C59.9036 48.1829 64.1941 47.9908 67.2038 47.5638L67.2251 45.0878C64.13 45.6427 60.2665 45.7922 57.4488 45.7922C56.3602 45.7922 54.7806 45.7068 53.692 45.5574ZM70.5977 51.6195L69.5518 49.1221C68.7407 49.5276 67.9936 49.8692 67.1611 50.2321C65.8804 50.8297 64.5356 51.342 62.5718 52.3666C60.0103 53.6474 56.9579 55.3977 56.9579 58.3647C56.9579 61.1183 59.4553 61.9508 62.7852 61.9508C64.8131 61.9508 67.4172 61.7587 68.8474 61.5666L68.9328 58.813C67.0544 59.1972 64.6637 59.432 62.8493 59.432C60.7788 59.432 59.7542 59.1118 59.7542 57.9378C59.7542 56.7638 60.8001 55.8459 62.7426 54.8427C64.749 53.8181 66.6701 53.0497 68.0576 52.516C68.7834 52.2385 69.936 51.8116 70.5977 51.6195ZM91.6618 46.2404L89.9328 44.9383C89.4846 45.0878 88.6521 45.1945 87.7129 45.1945C86.7737 45.1945 81.3092 45.1945 80.1779 45.1945C79.5589 45.1945 78.2354 45.1304 77.6591 45.0451V48.0975C78.1287 48.0548 79.3027 47.9481 80.1779 47.9481C81.0957 47.9481 86.5389 47.9481 87.4354 47.9481C86.9444 49.4636 85.6424 51.5768 84.2335 53.1777C82.2271 55.3977 78.9398 58.0019 75.4818 59.2826L77.7018 61.5879C81.0104 60.0297 84.2335 57.3828 86.6243 54.6292C88.46 52.4947 90.0396 49.5917 90.9147 47.5638C91.1068 47.1156 91.4911 46.4752 91.6618 46.2404ZM86.9017 52.8576L84.8953 54.8427C87.1792 56.9132 89.5059 59.4534 91.0855 61.652L93.5189 59.5387C92.1314 57.8311 89.1003 54.6506 86.9017 52.8576ZM108.222 44.5968L104.828 43.9137C104.743 44.6182 104.636 45.3012 104.337 46.3685C103.633 48.8446 101.413 55.8459 100.26 58.5782L103.398 58.4715C104.316 56.2515 106.536 49.3782 107.325 46.9875C107.646 46.027 107.944 45.2372 108.222 44.5968ZM112.043 51.4914L109.396 52.6014C110.912 54.6506 112.897 59.0691 113.857 61.652L116.739 60.3712C115.757 58.0019 113.58 53.7968 112.043 51.4914ZM100.047 57.6176C99.3636 57.639 98.4243 57.6603 97.6986 57.639L98.2109 60.7768C98.8726 60.6914 99.6837 60.5847 100.217 60.5206C103.099 60.2218 110.442 59.4534 113.601 59.0478L112.982 56.3156C109.994 56.7211 103.014 57.5109 100.047 57.6176ZM120.855 50.8084V54.181C121.666 54.117 123.096 54.0529 124.291 54.0529C126.81 54.0529 133.833 54.0529 135.775 54.0529C136.672 54.0529 137.76 54.1596 138.273 54.181V50.8084C137.696 50.8511 136.757 50.9578 135.754 50.9578C133.854 50.9578 126.81 50.9578 124.291 50.9578C123.181 50.9578 121.644 50.8724 120.855 50.8084ZM156.758 42.9532L155.072 43.6363C155.648 44.5114 156.288 45.7281 156.737 46.6033L158.444 45.8775C158.103 45.1304 157.313 43.7643 156.758 42.9532ZM159.448 42.2061L157.761 42.8892C158.316 43.7003 159.021 44.9383 159.469 45.8349L161.177 45.1091C160.792 44.362 160.003 42.9959 159.448 42.2061ZM157.719 46.7527L155.99 45.4506C155.541 45.6001 154.709 45.7281 153.77 45.7281C152.83 45.7281 147.366 45.7281 146.235 45.7281C145.616 45.7281 144.292 45.6427 143.716 45.5574V48.6098C144.185 48.5671 145.359 48.4604 146.235 48.4604C147.152 48.4604 152.596 48.4604 153.492 48.4604C153.001 49.9759 151.699 52.0891 150.29 53.69C148.284 55.9313 144.997 58.5142 141.539 59.8162L143.759 62.1216C147.067 60.542 150.29 57.8951 152.681 55.1415C154.517 53.007 156.096 50.104 156.971 48.0761C157.164 47.6279 157.548 46.9875 157.719 46.7527ZM152.958 53.3699L150.952 55.355C153.236 57.4255 155.563 59.9657 157.142 62.1643L159.576 60.051C158.188 58.3434 155.157 55.1629 152.958 53.3699ZM172.422 45.7708L172.443 48.5031C175.111 48.7592 178.996 48.7592 181.6 48.5031V45.7495C179.316 46.027 175.047 46.1337 172.422 45.7708ZM174.129 54.8854L171.696 54.6719C171.44 55.7606 171.312 56.593 171.312 57.4469C171.312 59.6241 173.083 60.9476 176.755 60.9476C179.167 60.9476 180.896 60.7981 182.283 60.5206L182.219 57.639C180.362 58.0445 178.783 58.2153 176.883 58.2153C174.706 58.2153 173.873 57.639 173.873 56.6784C173.873 56.1234 173.959 55.6111 174.129 54.8854ZM169.134 44.3407L166.146 44.1059C166.125 44.7889 166.018 45.6001 165.933 46.1764C165.698 47.8413 165.057 51.4274 165.057 54.6506C165.057 57.5536 165.463 60.1578 165.89 61.6093L168.345 61.4598C168.323 61.161 168.323 60.7981 168.302 60.5633C168.302 60.3499 168.366 59.8803 168.43 59.5601C168.643 58.4288 169.348 56.1234 169.967 54.3304L168.643 53.2845C168.323 54.0102 167.982 54.736 167.662 55.4617C167.598 55.0348 167.576 54.5012 167.576 54.0743C167.576 51.9397 168.323 47.6706 168.622 46.2618C168.708 45.8775 168.985 44.7889 169.134 44.3407Z" fill="white"/>
<rect x="60.4792" width="132.521" height="31.129" fill="#393849"/>
<path d="M164.888 8.71467L165.165 11.639C167.62 11.1054 171.996 10.6358 173.981 10.4223C172.551 11.511 170.822 13.9444 170.822 16.9968C170.822 21.6288 175.048 24.0408 179.509 24.3183L180.513 21.394C176.905 21.2232 173.618 19.9425 173.618 16.4418C173.618 13.9017 175.56 11.1267 178.122 10.4437C179.275 10.1875 181.11 10.1662 182.263 10.1662L182.242 7.41259C180.726 7.47663 178.399 7.62605 176.179 7.79681C172.273 8.13834 168.751 8.43718 166.979 8.60795C166.574 8.65064 165.72 8.69333 164.888 8.71467ZM179.211 12.258L177.631 12.9198C178.293 13.859 178.741 14.7128 179.296 15.8655L180.897 15.1611C180.491 14.3072 179.723 13.0051 179.211 12.258ZM181.58 11.2761L180.043 11.9806C180.726 12.9198 181.217 13.7309 181.793 14.8836L183.394 14.1151C182.946 13.2826 182.135 12.0232 181.58 11.2761Z" fill="white"/>
<path d="M76.7093 14.4289H78.8011V19.5838C78.8011 22.4975 80.3451 24.0166 82.7608 24.0166C84.23 24.0166 85.3507 23.4687 86.0231 22.8213L84.6534 20.5551C84.3546 20.9037 83.8067 21.1527 83.2588 21.1527C82.3623 21.1527 81.8891 20.6049 81.8891 19.4842V14.4289H85.1017V11.7393H81.8642V8.65132H78.826V11.7393H76.7093V14.4289ZM92.4254 16.9939C92.4254 15.3752 93.1974 14.3542 94.4177 14.3542C94.9905 14.3542 95.5882 14.5534 95.9866 14.8771L97.2567 11.9884C96.7835 11.6148 96.136 11.3907 95.3391 11.3907C94.094 11.3907 93.0978 12.0382 92.4254 13.0343V11.7393H89.3873V23.668H92.4254V16.9939ZM108.244 23.668H111.307V11.7393H108.244V12.9347C107.397 11.9635 106.177 11.3907 104.608 11.3907C101.296 11.3907 98.8802 14.1051 98.8802 17.7161C98.8802 21.4267 101.445 24.0166 104.608 24.0166C106.152 24.0166 107.372 23.394 108.244 22.373V23.668ZM105.106 21.1527C103.263 21.1527 101.918 19.6087 101.918 17.6912C101.918 15.7736 103.263 14.2545 105.106 14.2545C106.924 14.2545 108.244 15.7736 108.244 17.6912C108.244 19.6087 106.924 21.1527 105.106 21.1527ZM124.115 11.7393L121.027 20.9535L117.989 11.7393H114.652L118.985 23.668H122.92L127.228 11.7393H124.115ZM135.636 24.0166C137.654 24.0166 139.347 23.1948 140.243 22.1489L138.675 20.0819C137.977 20.8041 136.956 21.3271 135.761 21.3271C133.918 21.3271 132.648 20.1317 132.349 18.4632H141.19C141.24 18.264 141.264 17.8406 141.264 17.4671C141.264 14.0304 138.675 11.3907 135.263 11.3907C131.826 11.3907 129.236 14.2296 129.236 17.7161C129.236 21.1776 131.926 24.0166 135.636 24.0166ZM135.313 13.9806C136.732 13.9806 137.803 14.8522 138.152 16.5456H132.399C132.748 15.0265 133.794 13.9806 135.313 13.9806ZM145.041 23.668H148.079V6.53455H145.041V23.668ZM155.84 11.7393H152.801V23.668H155.84V11.7393ZM154.296 10.1206C155.292 10.1206 156.089 9.34861 156.089 8.35249C156.089 7.38126 155.292 6.55945 154.296 6.55945C153.324 6.55945 152.528 7.38126 152.528 8.35249C152.528 9.34861 153.324 10.1206 154.296 10.1206Z" fill="white"/>
</svg>
