<svg width="254" height="254" viewBox="0 0 254 254" fill="none" xmlns="http://www.w3.org/2000/svg">
<rect width="254" height="254" fill="white"/>
<path fill-rule="evenodd" clip-rule="evenodd" d="M202.309 100.57C205.801 100.509 209.27 101.151 212.514 102.458C215.758 103.765 218.712 105.712 221.203 108.185C223.694 110.658 225.672 113.606 227.023 116.86C228.373 120.113 229.069 123.605 229.069 127.133C229.069 130.66 228.373 134.153 227.023 137.406C225.672 140.659 223.694 143.608 221.203 146.08C218.712 148.553 215.758 150.5 212.514 151.807C209.27 153.115 205.801 153.756 202.309 153.695H146.513C139.538 153.694 132.85 150.895 127.918 145.914C122.986 140.933 120.215 134.177 120.214 127.133C120.154 123.65 118.743 120.331 116.283 117.89C113.824 115.448 110.513 114.08 107.065 114.08C103.617 114.08 100.306 115.448 97.8468 117.89C95.3874 120.331 93.9756 123.65 93.9157 127.133C93.9178 141.222 99.46 154.733 109.323 164.695C119.187 174.657 132.564 180.255 146.513 180.257H202.309C216.1 180.015 229.246 174.312 238.914 164.375C248.582 154.439 254 141.064 254 127.133C254 113.201 248.582 99.8265 238.914 89.8901C229.246 79.9536 216.1 74.2501 202.309 74.008L174.411 74.008C172.665 73.9774 170.93 74.2982 169.308 74.9519C167.687 75.6056 166.21 76.579 164.964 77.8153C163.719 79.0516 162.729 80.5261 162.054 82.1527C161.379 83.7793 161.031 85.5254 161.031 87.2892C161.031 89.053 161.379 90.7991 162.054 92.4257C162.729 94.0523 163.719 95.5267 164.964 96.7631C166.21 97.9994 167.687 98.9728 169.308 99.6264C170.93 100.28 172.665 100.601 174.411 100.57H202.309ZM109.315 100.57C116.29 100.571 122.978 103.37 127.91 108.351C132.842 113.333 135.613 120.088 135.614 127.133C135.584 128.896 135.901 130.648 136.549 132.286C137.196 133.925 138.159 135.416 139.384 136.674C140.608 137.932 142.067 138.931 143.678 139.613C145.288 140.295 147.017 140.647 148.763 140.647C150.51 140.647 152.238 140.295 153.849 139.613C155.459 138.931 156.919 137.932 158.143 136.674C159.367 135.416 160.331 133.925 160.978 132.286C161.625 130.648 161.943 128.896 161.913 127.133C161.911 113.044 156.368 99.5326 146.505 89.5702C136.642 79.6079 123.264 74.0102 109.315 74.008L53.5193 74.008C46.5352 73.8854 39.5969 75.1689 33.1092 77.7836C26.6215 80.3983 20.7143 84.2919 15.7323 89.2371C10.7504 94.1824 6.79336 100.08 4.09225 106.587C1.39114 113.093 0 120.077 0 127.133C0 134.188 1.39114 141.172 4.09225 147.679C6.79336 154.185 10.7503 160.083 15.7323 165.028C20.7143 169.973 26.6215 173.867 33.1092 176.482C39.5969 179.096 46.5352 180.38 53.5193 180.257L81.4174 180.257C83.1634 180.288 84.898 179.967 86.5199 179.313C88.1418 178.66 89.6186 177.686 90.8641 176.45C92.1096 175.214 93.0989 173.739 93.7741 172.113C94.4494 170.486 94.7972 168.74 94.7972 166.976C94.7972 165.212 94.4494 163.466 93.7741 161.84C93.0989 160.213 92.1096 158.739 90.8641 157.502C89.6186 156.266 88.1418 155.293 86.5199 154.639C84.898 153.985 83.1634 153.664 81.4174 153.695H53.5193C50.0273 153.756 46.5581 153.115 43.3142 151.807C40.0704 150.5 37.1168 148.553 34.6258 146.08C32.1348 143.608 30.1563 140.659 28.8058 137.406C27.4552 134.153 26.7597 130.66 26.7597 127.133C26.7597 123.605 27.4552 120.113 28.8058 116.86C30.1563 113.606 32.1348 110.658 34.6258 108.185C37.1168 105.712 40.0704 103.766 43.3142 102.458C46.5581 101.151 50.0273 100.509 53.5193 100.57L109.315 100.57Z" fill="#1D1575"/>
<mask id="mask0_345_1043" style="mask-type:alpha" maskUnits="userSpaceOnUse" x="0" y="74" width="254" height="107">
<path fill-rule="evenodd" clip-rule="evenodd" d="M202.309 100.57C205.801 100.509 209.27 101.151 212.514 102.458C215.758 103.765 218.712 105.712 221.203 108.185C223.694 110.658 225.672 113.606 227.023 116.86C228.373 120.113 229.069 123.605 229.069 127.133C229.069 130.66 228.373 134.153 227.023 137.406C225.672 140.659 223.694 143.608 221.203 146.08C218.712 148.553 215.758 150.5 212.514 151.807C209.27 153.115 205.801 153.756 202.309 153.695H146.513C139.538 153.694 132.85 150.895 127.918 145.914C122.986 140.933 120.215 134.177 120.214 127.133C120.154 123.65 118.743 120.331 116.283 117.89C113.824 115.448 110.513 114.08 107.065 114.08C103.617 114.08 100.306 115.448 97.8468 117.89C95.3874 120.331 93.9756 123.65 93.9157 127.133C93.9178 141.222 99.46 154.733 109.323 164.695C119.187 174.657 132.564 180.255 146.513 180.257H202.309C216.1 180.015 229.246 174.312 238.914 164.375C248.582 154.439 254 141.064 254 127.133C254 113.201 248.582 99.8265 238.914 89.8901C229.246 79.9536 216.1 74.2501 202.309 74.008L174.411 74.008C172.665 73.9774 170.93 74.2982 169.308 74.9519C167.687 75.6056 166.21 76.579 164.964 77.8153C163.719 79.0516 162.729 80.5261 162.054 82.1527C161.379 83.7793 161.031 85.5254 161.031 87.2892C161.031 89.053 161.379 90.7991 162.054 92.4257C162.729 94.0523 163.719 95.5267 164.964 96.7631C166.21 97.9994 167.687 98.9728 169.308 99.6264C170.93 100.28 172.665 100.601 174.411 100.57H202.309ZM109.315 100.57C116.29 100.571 122.978 103.37 127.91 108.351C132.842 113.333 135.613 120.088 135.614 127.133C135.584 128.896 135.901 130.648 136.549 132.286C137.196 133.925 138.159 135.416 139.384 136.674C140.608 137.932 142.067 138.931 143.678 139.613C145.288 140.295 147.017 140.647 148.763 140.647C150.51 140.647 152.238 140.295 153.849 139.613C155.459 138.931 156.919 137.932 158.143 136.674C159.367 135.416 160.331 133.925 160.978 132.286C161.625 130.648 161.943 128.896 161.913 127.133C161.911 113.044 156.368 99.5326 146.505 89.5702C136.642 79.6079 123.264 74.0102 109.315 74.008L53.5193 74.008C46.5352 73.8854 39.5969 75.1689 33.1092 77.7836C26.6215 80.3983 20.7143 84.2919 15.7323 89.2371C10.7504 94.1824 6.79336 100.08 4.09225 106.587C1.39114 113.093 0 120.077 0 127.133C0 134.188 1.39114 141.172 4.09225 147.679C6.79336 154.185 10.7503 160.083 15.7323 165.028C20.7143 169.973 26.6215 173.867 33.1092 176.482C39.5969 179.096 46.5352 180.38 53.5193 180.257L81.4174 180.257C83.1634 180.288 84.898 179.967 86.5199 179.313C88.1418 178.66 89.6186 177.686 90.8641 176.45C92.1096 175.214 93.0989 173.739 93.7741 172.113C94.4494 170.486 94.7972 168.74 94.7972 166.976C94.7972 165.212 94.4494 163.466 93.7741 161.84C93.0989 160.213 92.1096 158.739 90.8641 157.502C89.6186 156.266 88.1418 155.293 86.5199 154.639C84.898 153.985 83.1634 153.664 81.4174 153.695H53.5193C50.0273 153.756 46.5581 153.115 43.3142 151.807C40.0704 150.5 37.1168 148.553 34.6258 146.08C32.1348 143.608 30.1563 140.659 28.8058 137.406C27.4552 134.153 26.7597 130.66 26.7597 127.133C26.7597 123.605 27.4552 120.113 28.8058 116.86C30.1563 113.606 32.1348 110.658 34.6258 108.185C37.1168 105.712 40.0704 103.766 43.3142 102.458C46.5581 101.151 50.0273 100.509 53.5193 100.57L109.315 100.57Z" fill="#1D1575"/>
</mask>
<g mask="url(#mask0_345_1043)">
<path d="M76.4592 121.949C62.2041 131.021 84.2347 137.5 147.735 224.327L171.061 226.918L274.735 169.898L250.112 49.3777L152.918 74.0001L158.102 98.6226L168.469 102.51L181.429 107.694L168.469 142.684L145.143 149.163L130.888 140.092L124.408 119.357L108.857 107.694C102.81 109.422 87.8632 114.692 76.4592 121.949Z" fill="#FF4572"/>
</g>
</svg>
