<svg width="24" height="25" viewBox="0 0 24 25" fill="none" xmlns="http://www.w3.org/2000/svg">
<path d="M12 5.95166V5.96166V5.95166ZM12 12.9517V12.9617V12.9517ZM12 19.9517V19.9617V19.9517ZM12 6.95166C11.7348 6.95166 11.4804 6.8463 11.2929 6.65877C11.1054 6.47123 11 6.21688 11 5.95166C11 5.68644 11.1054 5.43209 11.2929 5.24455C11.4804 5.05702 11.7348 4.95166 12 4.95166C12.2652 4.95166 12.5196 5.05702 12.7071 5.24455C12.8946 5.43209 13 5.68644 13 5.95166C13 6.21688 12.8946 6.47123 12.7071 6.65877C12.5196 6.8463 12.2652 6.95166 12 6.95166ZM12 13.9517C11.7348 13.9517 11.4804 13.8463 11.2929 13.6588C11.1054 13.4712 11 13.2169 11 12.9517C11 12.6864 11.1054 12.4321 11.2929 12.2446C11.4804 12.057 11.7348 11.9517 12 11.9517C12.2652 11.9517 12.5196 12.057 12.7071 12.2446C12.8946 12.4321 13 12.6864 13 12.9517C13 13.2169 12.8946 13.4712 12.7071 13.6588C12.5196 13.8463 12.2652 13.9517 12 13.9517ZM12 20.9517C11.7348 20.9517 11.4804 20.8463 11.2929 20.6588C11.1054 20.4712 11 20.2169 11 19.9517C11 19.6864 11.1054 19.4321 11.2929 19.2446C11.4804 19.057 11.7348 18.9517 12 18.9517C12.2652 18.9517 12.5196 19.057 12.7071 19.2446C12.8946 19.4321 13 19.6864 13 19.9517C13 20.2169 12.8946 20.4712 12.7071 20.6588C12.5196 20.8463 12.2652 20.9517 12 20.9517Z" stroke="#7E7E7E" stroke-width="2" stroke-linecap="round" stroke-linejoin="round"/>
</svg>
