<svg width="134" height="74" viewBox="0 0 134 74" fill="none" xmlns="http://www.w3.org/2000/svg">
<path d="M1.08438 42.8726H4.62033V51.5862C4.62033 56.5113 7.2302 59.0791 11.3134 59.0791C13.797 59.0791 15.6912 58.153 16.8278 57.0585L14.5126 53.2279C14.0074 53.8172 13.0814 54.2382 12.1553 54.2382C10.6399 54.2382 9.84007 53.3121 9.84007 51.4178V42.8726H15.2703V38.3264H9.79797V33.1067H4.66242V38.3264H1.08438V42.8726ZM26.9877 47.2084C26.9877 44.4722 28.2927 42.7463 30.3553 42.7463C31.3235 42.7463 32.3337 43.0831 33.0073 43.6303L35.1541 38.7474C34.3543 38.1159 33.2598 37.7371 31.9128 37.7371C29.8081 37.7371 28.1243 38.8315 26.9877 40.5153V38.3264H21.8522V58.4897H26.9877V47.2084ZM53.0637 58.4897H58.2414V38.3264H53.0637V40.3469C51.6325 38.7053 49.5699 37.7371 46.9179 37.7371C41.3193 37.7371 37.2361 42.3254 37.2361 48.4291C37.2361 54.7012 41.5719 59.0791 46.9179 59.0791C49.5278 59.0791 51.5904 58.0267 53.0637 56.3008V58.4897ZM47.7598 54.2382C44.6448 54.2382 42.3717 51.6283 42.3717 48.387C42.3717 45.1457 44.6448 42.578 47.7598 42.578C50.8327 42.578 53.0637 45.1457 53.0637 48.387C53.0637 51.6283 50.8327 54.2382 47.7598 54.2382ZM79.2298 38.3264L74.0101 53.9014L68.8745 38.3264H63.2338L70.5583 58.4897H77.2093L84.4916 38.3264H79.2298ZM98.0418 59.0791C101.452 59.0791 104.314 57.6899 105.829 55.922L103.177 52.4281C101.999 53.6489 100.273 54.5328 98.2523 54.5328C95.1373 54.5328 92.9905 52.5123 92.4854 49.692H107.429C107.513 49.3552 107.555 48.6396 107.555 48.0082C107.555 42.1991 103.177 37.7371 97.4104 37.7371C91.6014 37.7371 87.2235 42.5359 87.2235 48.4291C87.2235 54.2803 91.7697 59.0791 98.0418 59.0791ZM97.4946 42.1149C99.894 42.1149 101.704 43.5882 102.293 46.4507H92.5695C93.1589 43.8829 94.9268 42.1149 97.4946 42.1149ZM113.276 58.4897H118.412V29.5286H113.276V58.4897ZM130.868 38.3264H125.732V58.4897H130.868V38.3264ZM128.258 35.5903C129.942 35.5903 131.289 34.2853 131.289 32.6015C131.289 30.9598 129.942 29.5707 128.258 29.5707C126.616 29.5707 125.269 30.9598 125.269 32.6015C125.269 34.2853 126.616 35.5903 128.258 35.5903Z" fill="#353442"/>
<path fill-rule="evenodd" clip-rule="evenodd" d="M79.7044 4.49516C80.2951 4.48479 80.8821 4.59336 81.4309 4.81454C81.9796 5.03572 82.4793 5.36507 82.9008 5.78339C83.3222 6.2017 83.6569 6.7006 83.8854 7.25097C84.1139 7.80134 84.2315 8.39217 84.2315 8.98896C84.2315 9.58576 84.1139 10.1766 83.8854 10.727C83.6569 11.2773 83.3222 11.7762 82.9008 12.1945C82.4793 12.6129 81.9796 12.9422 81.4309 13.1634C80.8821 13.3846 80.2951 13.4931 79.7044 13.4828H70.2648C69.0848 13.4826 67.9533 13.0091 67.1189 12.1664C66.2846 11.3237 65.8158 10.1807 65.8156 8.98896C65.8055 8.39981 65.5666 7.83825 65.1505 7.42523C64.7345 7.01221 64.1744 6.78078 63.591 6.78078C63.0076 6.78078 62.4476 7.01221 62.0315 7.42523C61.6154 7.83825 61.3766 8.39981 61.3664 8.98896C61.3668 11.3725 62.3044 13.6583 63.9731 15.3438C65.6418 17.0292 67.9049 17.9762 70.2648 17.9766H79.7044C82.0376 17.9356 84.2615 16.9707 85.8972 15.2896C87.5329 13.6086 88.4494 11.3459 88.4494 8.98896C88.4494 6.632 87.5329 4.36932 85.8972 2.68828C84.2615 1.00723 82.0376 0.0423157 79.7044 0.00135605L74.9846 0.00135731C74.6892 -0.00382831 74.3957 0.0504575 74.1213 0.161047C73.8469 0.271636 73.5971 0.436314 73.3864 0.645472C73.1757 0.85463 73.0083 1.10408 72.8941 1.37927C72.7798 1.65445 72.721 1.94986 72.721 2.24826C72.721 2.54666 72.7798 2.84207 72.8941 3.11725C73.0083 3.39244 73.1757 3.64189 73.3864 3.85105C73.5971 4.0602 73.8469 4.22488 74.1213 4.33547C74.3957 4.44606 74.6892 4.50035 74.9846 4.49516H79.7044ZM63.9717 4.49516C65.1517 4.49534 66.2832 4.96885 67.1176 5.81156C67.9519 6.65428 68.4207 7.79719 68.4209 8.98896C68.4158 9.28732 68.4695 9.58372 68.579 9.86087C68.6885 10.138 68.8516 10.3904 69.0586 10.6032C69.2657 10.816 69.5127 10.9851 69.7852 11.1004C70.0576 11.2158 70.3501 11.2753 70.6455 11.2753C70.941 11.2753 71.2334 11.2158 71.5059 11.1004C71.7783 10.9851 72.0253 10.816 72.2324 10.6032C72.4395 10.3904 72.6025 10.138 72.712 9.86086C72.8215 9.58371 72.8752 9.28732 72.8701 8.98896C72.8698 6.60541 71.9321 4.31959 70.2634 2.63416C68.5948 0.948738 66.3316 0.00171765 63.9717 0.00135777L54.5322 0.00135754C53.3506 -0.0193849 52.1768 0.197757 51.0792 0.640114C49.9816 1.08247 48.9822 1.74118 48.1394 2.57781C47.2965 3.41445 46.6271 4.41225 46.1701 5.51299C45.7131 6.61373 45.4778 7.79537 45.4778 8.98897C45.4778 10.1826 45.7131 11.3642 46.1701 12.4649C46.6271 13.5657 47.2965 14.5635 48.1394 15.4001C48.9822 16.2367 49.9816 16.8955 51.0792 17.3378C52.1768 17.7802 53.3506 17.9973 54.5322 17.9766L59.2519 17.9766C59.5473 17.9818 59.8408 17.9275 60.1152 17.8169C60.3896 17.7063 60.6394 17.5416 60.8501 17.3325C61.0609 17.1233 61.2282 16.8738 61.3425 16.5987C61.4567 16.3235 61.5155 16.0281 61.5155 15.7297C61.5155 15.4313 61.4567 15.1359 61.3425 14.8607C61.2282 14.5855 61.0609 14.336 60.8501 14.1269C60.6394 13.9177 60.3896 13.753 60.1152 13.6425C59.8408 13.5319 59.5473 13.4776 59.2519 13.4828H54.5322C53.9414 13.4931 53.3545 13.3846 52.8057 13.1634C52.2569 12.9422 51.7572 12.6129 51.3358 12.1945C50.9143 11.7762 50.5796 11.2773 50.3511 10.727C50.1226 10.1766 50.005 9.58576 50.005 8.98896C50.005 8.39217 50.1226 7.80135 50.3511 7.25098C50.5796 6.7006 50.9143 6.20171 51.3358 5.78339C51.7572 5.36507 52.2569 5.03572 52.8057 4.81454C53.3545 4.59336 53.9414 4.48479 54.5322 4.49516L63.9717 4.49516Z" fill="#1D1575"/>
<mask id="mask0_41_283" style="mask-type:alpha" maskUnits="userSpaceOnUse" x="45" y="0" width="44" height="18">
<path fill-rule="evenodd" clip-rule="evenodd" d="M79.7044 4.49516C80.2951 4.48479 80.8821 4.59336 81.4309 4.81454C81.9796 5.03572 82.4793 5.36507 82.9008 5.78339C83.3222 6.2017 83.6569 6.7006 83.8854 7.25097C84.1139 7.80134 84.2315 8.39217 84.2315 8.98896C84.2315 9.58576 84.1139 10.1766 83.8854 10.727C83.6569 11.2773 83.3222 11.7762 82.9008 12.1945C82.4793 12.6129 81.9796 12.9422 81.4309 13.1634C80.8821 13.3846 80.2951 13.4931 79.7044 13.4828H70.2648C69.0848 13.4826 67.9533 13.0091 67.1189 12.1664C66.2846 11.3237 65.8158 10.1807 65.8156 8.98896C65.8055 8.39981 65.5666 7.83825 65.1505 7.42523C64.7345 7.01221 64.1744 6.78078 63.591 6.78078C63.0076 6.78078 62.4476 7.01221 62.0315 7.42523C61.6154 7.83825 61.3766 8.39981 61.3664 8.98896C61.3668 11.3725 62.3044 13.6583 63.9731 15.3438C65.6418 17.0292 67.9049 17.9762 70.2648 17.9766H79.7044C82.0376 17.9356 84.2615 16.9707 85.8972 15.2896C87.5329 13.6086 88.4494 11.3459 88.4494 8.98896C88.4494 6.632 87.5329 4.36932 85.8972 2.68828C84.2615 1.00723 82.0376 0.0423157 79.7044 0.00135605L74.9846 0.00135731C74.6892 -0.00382831 74.3957 0.0504575 74.1213 0.161047C73.8469 0.271636 73.5971 0.436314 73.3864 0.645472C73.1757 0.85463 73.0083 1.10408 72.8941 1.37927C72.7798 1.65445 72.721 1.94986 72.721 2.24826C72.721 2.54666 72.7798 2.84207 72.8941 3.11725C73.0083 3.39244 73.1757 3.64189 73.3864 3.85105C73.5971 4.0602 73.8469 4.22488 74.1213 4.33547C74.3957 4.44606 74.6892 4.50035 74.9846 4.49516H79.7044ZM63.9717 4.49516C65.1517 4.49534 66.2832 4.96885 67.1176 5.81156C67.9519 6.65428 68.4207 7.79719 68.4209 8.98896C68.4158 9.28732 68.4695 9.58372 68.579 9.86087C68.6885 10.138 68.8516 10.3904 69.0586 10.6032C69.2657 10.816 69.5127 10.9851 69.7852 11.1004C70.0576 11.2158 70.3501 11.2753 70.6455 11.2753C70.941 11.2753 71.2334 11.2158 71.5059 11.1004C71.7783 10.9851 72.0253 10.816 72.2324 10.6032C72.4395 10.3904 72.6025 10.138 72.712 9.86086C72.8215 9.58371 72.8752 9.28732 72.8701 8.98896C72.8698 6.60541 71.9321 4.31959 70.2634 2.63416C68.5948 0.948738 66.3316 0.00171765 63.9717 0.00135777L54.5322 0.00135754C53.3506 -0.0193849 52.1768 0.197757 51.0792 0.640114C49.9816 1.08247 48.9822 1.74118 48.1394 2.57781C47.2965 3.41445 46.6271 4.41225 46.1701 5.51299C45.7131 6.61373 45.4778 7.79537 45.4778 8.98897C45.4778 10.1826 45.7131 11.3642 46.1701 12.4649C46.6271 13.5657 47.2965 14.5635 48.1394 15.4001C48.9822 16.2367 49.9816 16.8955 51.0792 17.3378C52.1768 17.7802 53.3506 17.9973 54.5322 17.9766L59.2519 17.9766C59.5473 17.9818 59.8408 17.9275 60.1152 17.8169C60.3896 17.7063 60.6394 17.5416 60.8501 17.3325C61.0609 17.1233 61.2282 16.8738 61.3425 16.5987C61.4567 16.3235 61.5155 16.0281 61.5155 15.7297C61.5155 15.4313 61.4567 15.1359 61.3425 14.8607C61.2282 14.5855 61.0609 14.336 60.8501 14.1269C60.6394 13.9177 60.3896 13.753 60.1152 13.6425C59.8408 13.5319 59.5473 13.4776 59.2519 13.4828H54.5322C53.9414 13.4931 53.3545 13.3846 52.8057 13.1634C52.2569 12.9422 51.7572 12.6129 51.3358 12.1945C50.9143 11.7762 50.5796 11.2773 50.3511 10.727C50.1226 10.1766 50.005 9.58576 50.005 8.98896C50.005 8.39217 50.1226 7.80135 50.3511 7.25098C50.5796 6.7006 50.9143 6.20171 51.3358 5.78339C51.7572 5.36507 52.2569 5.03572 52.8057 4.81454C53.3545 4.59336 53.9414 4.48479 54.5322 4.49516L63.9717 4.49516Z" fill="#1D1575"/>
</mask>
<g mask="url(#mask0_41_283)">
<path d="M58.4131 8.11208C56.0015 9.64678 59.7286 10.743 70.4715 25.4323L74.4179 25.8708L91.9573 16.2241L87.7917 -4.16553L71.3485 8.96454e-05L72.2255 4.16571L73.9794 4.82344L76.1718 5.70041L73.9794 11.62L70.033 12.7162L67.6214 11.1815L66.5252 7.67359L63.8942 5.70041C62.8711 5.99273 60.3425 6.88432 58.4131 8.11208Z" fill="#FF4572"/>
</g>
</svg>
