<svg width="77" height="18" viewBox="0 0 77 18" fill="none" xmlns="http://www.w3.org/2000/svg">
<path d="M0.668625 8.096H2.68463V13.064C2.68463 15.872 4.17263 17.336 6.50063 17.336C7.91663 17.336 8.99663 16.808 9.64463 16.184L8.32463 14C8.03663 14.336 7.50863 14.576 6.98063 14.576C6.11663 14.576 5.66063 14.048 5.66063 12.968V8.096H8.75663V5.504H5.63663V2.528H2.70863V5.504H0.668625V8.096ZM15.6873 10.568C15.6873 9.008 16.4313 8.024 17.6073 8.024C18.1593 8.024 18.7353 8.216 19.1193 8.528L20.3433 5.744C19.8873 5.384 19.2633 5.168 18.4953 5.168C17.2953 5.168 16.3353 5.792 15.6873 6.752V5.504H12.7593V17H15.6873V10.568ZM30.8043 17H33.7563V5.504H30.8043V6.656C29.9883 5.72 28.8123 5.168 27.3003 5.168C24.1083 5.168 21.7803 7.784 21.7803 11.264C21.7803 14.84 24.2523 17.336 27.3003 17.336C28.7883 17.336 29.9643 16.736 30.8043 15.752V17ZM27.7803 14.576C26.0043 14.576 24.7083 13.088 24.7083 11.24C24.7083 9.392 26.0043 7.928 27.7803 7.928C29.5323 7.928 30.8043 9.392 30.8043 11.24C30.8043 13.088 29.5323 14.576 27.7803 14.576ZM45.9728 5.504L42.9968 14.384L40.0688 5.504H36.8528L41.0288 17H44.8208L48.9728 5.504H45.9728ZM56.9483 17.336C58.8923 17.336 60.5243 16.544 61.3883 15.536L59.8763 13.544C59.2043 14.24 58.2203 14.744 57.0683 14.744C55.2923 14.744 54.0683 13.592 53.7803 11.984H62.3003C62.3483 11.792 62.3723 11.384 62.3723 11.024C62.3723 7.712 59.8763 5.168 56.5883 5.168C53.2763 5.168 50.7803 7.904 50.7803 11.264C50.7803 14.6 53.3723 17.336 56.9483 17.336ZM56.6363 7.664C58.0043 7.664 59.0363 8.504 59.3723 10.136H53.8283C54.1643 8.672 55.1723 7.664 56.6363 7.664ZM65.8843 17H68.8123V0.487999H65.8843V17ZM76.1638 5.504H73.2358V17H76.1638V5.504ZM74.6758 3.944C75.6358 3.944 76.4038 3.2 76.4038 2.24C76.4038 1.304 75.6358 0.511999 74.6758 0.511999C73.7398 0.511999 72.9718 1.304 72.9718 2.24C72.9718 3.2 73.7398 3.944 74.6758 3.944Z" fill="#393849"/>
</svg>
